<?xml version="1.0" encoding="utf-8"?>
<!-- Generator: Adobe Illustrator 27.7.0, SVG Export Plug-In . SVG Version: 6.00 Build 0)  -->
<svg version="1.1" id="Ebene_1" xmlns="http://www.w3.org/2000/svg" xmlns:xlink="http://www.w3.org/1999/xlink" x="0px" y="0px"
	 viewBox="0 0 29 29" style="enable-background:new 0 0 29 29;" xml:space="preserve">
<path d="M5.1,22.7c1.5-1.1,3-1.9,4.5-2.4c1.5-0.6,3.1-0.9,4.8-0.9s3.3,0.3,4.8,0.9s3,1.4,4.5,2.4c1.1-1.3,1.8-2.6,2.3-4
	s0.7-2.7,0.7-4.2c0-3.5-1.2-6.4-3.5-8.8S18,2.2,14.5,2.2S8.1,3.4,5.7,5.7S2.2,11,2.2,14.5c0,1.5,0.2,2.9,0.7,4.2S4.1,21.4,5.1,22.7z
	 M14.5,15.6c-1.4,0-2.6-0.5-3.5-1.4S9.5,12,9.5,10.6S10,8,11,7.1c1-1,2.1-1.4,3.5-1.4s2.6,0.5,3.5,1.4c1,1,1.4,2.1,1.4,3.5
	S19,13.2,18,14.2C17.1,15.1,15.9,15.6,14.5,15.6z M14.5,29c-2,0-3.9-0.4-5.6-1.1c-1.8-0.8-3.3-1.8-4.6-3.1c-1.3-1.3-2.4-2.9-3.1-4.6
	S0,16.5,0,14.5s0.4-3.9,1.1-5.6s1.8-3.3,3.1-4.6s2.9-2.4,4.6-3.1S12.5,0,14.5,0s3.9,0.4,5.6,1.1s3.3,1.8,4.6,3.1
	c1.3,1.3,2.4,2.9,3.1,4.6c0.8,1.8,1.1,3.6,1.1,5.6s-0.4,3.9-1.1,5.6c-0.8,1.8-1.8,3.3-3.1,4.6c-1.3,1.3-2.9,2.4-4.6,3.1
	C18.4,28.6,16.5,29,14.5,29z M14.5,26.8c1.3,0,2.6-0.2,3.9-0.6s2.5-1.1,3.8-2c-1.2-0.9-2.5-1.5-3.8-2s-2.6-0.7-3.9-0.7
	s-2.6,0.2-3.9,0.7s-2.5,1.1-3.8,2c1.2,1,2.5,1.6,3.8,2S13.2,26.8,14.5,26.8z M14.5,13.4c0.8,0,1.5-0.3,2-0.8s0.8-1.2,0.8-2
	s-0.3-1.5-0.8-2s-1.2-0.8-2-0.8s-1.5,0.3-2,0.8s-0.8,1.2-0.8,2s0.3,1.5,0.8,2C13,13.2,13.7,13.4,14.5,13.4z"/>
</svg>
