<svg width="30" height="30" viewBox="0 0 30 30" fill="none" xmlns="http://www.w3.org/2000/svg">
<rect width="30" height="30" rx="6" fill="#232323"/>
<path d="M8.29384 21.0029C7.9028 21.3929 7.90194 22.026 8.29194 22.4171C8.68194 22.8081 9.31511 22.809 9.70616 22.419L8.29384 21.0029ZM22.745 9.00148C22.7458 8.4492 22.2987 8.00088 21.7464 8.00014L12.7464 7.98804C12.1941 7.9873 11.7458 8.43441 11.745 8.98669C11.7443 9.53898 12.1914 9.9873 12.7437 9.98804L20.7437 9.99879L20.7329 17.9988C20.7322 18.5511 21.1793 18.9994 21.7316 19.0001C22.2839 19.0009 22.7322 18.5538 22.7329 18.0015L22.745 9.00148ZM9 21.7109L9.70616 22.419L22.4512 9.7082L21.745 9.00014L21.0389 8.29208L8.29384 21.0029L9 21.7109Z" fill="white"/>
</svg>
