<svg width="30" height="30" viewBox="0 0 30 30" fill="none" xmlns="http://www.w3.org/2000/svg">
<rect x="30" y="30" width="30" height="30" rx="6" transform="rotate(-180 30 30)" fill="#232323"/>
<path d="M21.7062 8.99712C22.0972 8.60712 22.0981 7.97396 21.7081 7.58291C21.3181 7.19186 20.6849 7.19101 20.2938 7.58101L21.7062 8.99712ZM7.25498 20.9985C7.25423 21.5508 7.70135 21.9991 8.25363 21.9999L17.2536 22.012C17.8059 22.0127 18.2542 21.5656 18.255 21.0133C18.2557 20.461 17.8086 20.0127 17.2563 20.012L9.25632 20.0012L9.26708 12.0012C9.26782 11.4489 8.82071 11.0006 8.26842 10.9999C7.71614 10.9991 7.26782 11.4462 7.26708 11.9985L7.25498 20.9985ZM21 8.28906L20.2938 7.58101L7.54882 20.2918L8.25498 20.9999L8.96113 21.7079L21.7062 8.99712L21 8.28906Z" fill="white"/>
</svg>
