<svg width="70" height="70" viewBox="0 0 70 70" fill="none" xmlns="http://www.w3.org/2000/svg">
<path d="M35 52.6207C35.9655 52.6207 36.931 52.3793 37.4138 51.6552C38.1379 50.931 38.3793 50.2069 38.3793 49.2414C38.3793 48.2759 38.1379 47.3103 37.4138 46.8276C36.6897 46.1034 35.9655 45.8621 35 45.8621C34.0345 45.8621 33.069 46.1034 32.5862 46.8276C31.8621 47.5517 31.6207 48.2759 31.6207 49.2414C31.6207 50.2069 31.8621 51.1724 32.5862 51.6552C33.069 52.1379 34.0345 52.6207 35 52.6207ZM31.6207 38.3793H38.6207V17.3793H31.6207V38.3793ZM35 70C30.1724 70 25.5862 69.0345 21.2414 67.3448C16.8966 65.4138 13.2759 63 10.1379 59.8621C7 56.7241 4.58621 53.1034 2.65517 48.7586C0.965517 44.4138 0 39.8276 0 35C0 30.1724 0.965517 25.5862 2.65517 21.2414C4.34483 16.8966 7 13.2759 10.1379 10.1379C13.2759 7 16.8966 4.58621 21.2414 2.65517C25.5862 0.724138 30.1724 0 35 0C39.8276 0 44.4138 0.965517 48.7586 2.65517C53.1034 4.58621 56.7241 7 59.8621 10.1379C63 13.2759 65.4138 16.8966 67.3448 21.2414C69.2759 25.5862 70 29.931 70 35C70 40.069 69.0345 44.4138 67.3448 48.7586C65.4138 53.1034 63 56.7241 59.8621 59.8621C56.7241 63 53.1034 65.4138 48.7586 67.3448C44.4138 69.0345 39.8276 70 35 70ZM35 63C42.7241 63 49.4828 60.3448 54.7931 54.7931C60.1035 49.2414 63 42.7241 63 35C63 27.2759 60.3448 20.5172 54.7931 15.2069C49.2414 9.89655 42.7241 7 35 7C27.2759 7 20.5172 9.65517 15.2069 15.2069C9.89655 20.7586 7 27.2759 7 35C7 42.7241 9.65517 49.4828 15.2069 54.7931C20.7586 60.1035 27.2759 63 35 63Z" fill="#FF0061"/>
</svg>
