<svg width="24" height="24" viewBox="0 0 24 24" fill="none"
	xmlns="http://www.w3.org/2000/svg">
	<path d="M9.06848 5.0625C8.43412 5.31563 7.84301 5.65312 7.30477 6.05625L6.6656 6.53437L5.89668 6.29531L3.39768 5.51719L1.95114 7.97812L3.88787 9.69844L4.48378 10.2281L4.37805 11.0063C4.3348 11.3297 4.31077 11.6625 4.31077 12C4.31077 12.3375 4.3348 12.6703 4.37805 12.9938L4.48378 13.7719L3.88787 14.3016L1.95114 16.0219L3.40248 18.4781L5.90148 17.7L6.6704 17.4609L7.30957 17.9391C7.84782 18.3422 8.43893 18.6797 9.07329 18.9328L9.81818 19.2328L9.99119 20.0016L10.5487 22.5H13.4561L14.0184 20.0016L14.1914 19.2328L14.9315 18.9375C15.5659 18.6844 16.157 18.3469 16.6952 17.9437L17.3344 17.4656L18.1033 17.7047L20.6023 18.4828L22.0537 16.0266L20.1169 14.3063L19.521 13.7766L19.6268 12.9984C19.67 12.675 19.694 12.3422 19.694 12.0047C19.694 11.6672 19.67 11.3344 19.6268 11.0109L19.521 10.2328L20.1169 9.70312L22.0537 7.98281L20.6023 5.52656L18.1033 6.30469L17.3344 6.54375L16.6952 6.06562C16.157 5.6625 15.5659 5.325 14.9315 5.07187L14.1866 4.77188L14.0136 4.00313L13.4513 1.5H10.5487L9.98638 3.99844L9.81338 4.76719L9.06848 5.0625ZM9.30877 0H14.6912L15.5178 3.675C16.2771 3.97969 16.9884 4.38281 17.6324 4.86563L21.3088 3.72188L24 8.26875L21.1454 10.8047C21.1982 11.1938 21.2271 11.5922 21.2271 11.9953C21.2271 12.3984 21.1982 12.7969 21.1454 13.1859L24 15.7219L21.3088 20.2687L17.6324 19.125C16.9884 19.6078 16.2771 20.0109 15.5178 20.3156L14.6912 24H9.30877L8.48218 20.325C7.72287 20.0203 7.01161 19.6172 6.36764 19.1344L2.69123 20.2734L0 15.7266L2.85463 13.1906C2.80176 12.8016 2.77293 12.4031 2.77293 12C2.77293 11.5969 2.80176 11.1984 2.85463 10.8094L0 8.27344L2.69123 3.72656L6.36764 4.87031C7.01161 4.3875 7.72287 3.98438 8.48218 3.67969L9.30877 0ZM14.6912 12C14.6912 11.3038 14.4077 10.6361 13.903 10.1438C13.3983 9.65156 12.7138 9.375 12 9.375C11.2862 9.375 10.6017 9.65156 10.097 10.1438C9.59231 10.6361 9.30877 11.3038 9.30877 12C9.30877 12.6962 9.59231 13.3639 10.097 13.8562C10.6017 14.3484 11.2862 14.625 12 14.625C12.7138 14.625 13.3983 14.3484 13.903 13.8562C14.4077 13.3639 14.6912 12.6962 14.6912 12ZM7.77092 12C7.77092 10.906 8.21649 9.85677 9.00959 9.08318C9.8027 8.3096 10.8784 7.875 12 7.875C13.1216 7.875 14.1973 8.3096 14.9904 9.08318C15.7835 9.85677 16.2291 10.906 16.2291 12C16.2291 13.094 15.7835 14.1432 14.9904 14.9168C14.1973 15.6904 13.1216 16.125 12 16.125C10.8784 16.125 9.8027 15.6904 9.00959 14.9168C8.21649 14.1432 7.77092 13.094 7.77092 12Z" fill="currentColor"/>
</svg>
