<svg width="24" height="24" viewBox="0 0 24 24" fill="none"
	xmlns="http://www.w3.org/2000/svg">
	<path d="M17.6134 12.8995C16.8447 12.5713 15.9541 12.787 15.4244 13.4338L13.8681 15.337C11.7119 14.0854 9.91187 12.2854 8.6603 10.1292L10.5587 8.5776C11.2056 8.04791 11.4259 7.15729 11.0931 6.38854L8.84311 1.13854C8.49155 0.313535 7.60562 -0.14584 6.72905 0.0416602L1.47905 1.16666C0.616553 1.34947 -0.00219727 2.11354 -0.00219727 2.99947C-0.00219727 14.0948 8.59937 23.1792 19.4978 23.9479C19.7087 23.962 19.9244 23.976 20.14 23.9854C20.14 23.9854 20.14 23.9854 20.1447 23.9854C20.4306 23.9948 20.7119 24.0042 21.0025 24.0042C21.8884 24.0042 22.6525 23.3854 22.8353 22.5229L23.9603 17.2729C24.1478 16.3963 23.6884 15.5104 22.8634 15.1588L17.6134 12.9088V12.8995ZM20.9837 22.4995C10.2212 22.4901 1.4978 13.7667 1.4978 2.99947C1.4978 2.82135 1.61968 2.67135 1.79312 2.63385L7.04312 1.50885C7.21655 1.47135 7.39468 1.5651 7.46499 1.72916L9.71499 6.97916C9.78062 7.13385 9.73843 7.31197 9.60718 7.4151L7.70405 8.97135C7.13687 9.43541 6.98687 10.2463 7.35718 10.8838C8.73999 13.2698 10.7275 15.2573 13.1087 16.6354C13.7462 17.0057 14.5572 16.8557 15.0212 16.2885L16.5775 14.3854C16.6853 14.2542 16.8634 14.212 17.0134 14.2776L22.2634 16.5276C22.4275 16.5979 22.5212 16.776 22.4837 16.9495L21.3587 22.1995C21.3212 22.3729 21.1666 22.4948 20.9931 22.4948C20.9884 22.4948 20.9837 22.4948 20.9791 22.4948L20.9837 22.4995Z" fill="currentColor"/>
</svg>
