<svg width="71" height="70" viewBox="0 0 71 70" fill="none" xmlns="http://www.w3.org/2000/svg">
<path d="M35.5 70C30.6724 70 26.0862 69.0345 21.7414 67.3448C17.3966 65.4138 13.7759 63 10.6379 59.8621C7.5 56.7241 5.08621 53.1034 3.15517 48.7586C1.46552 44.4138 0.5 39.8276 0.5 35C0.5 30.1724 1.46552 25.5862 3.15517 21.2414C4.84483 16.8966 7.5 13.2759 10.6379 10.1379C13.7759 7 17.3966 4.58621 21.7414 2.65517C26.0862 0.724138 30.6724 0 35.5 0C40.3276 0 44.9138 0.965517 49.2586 2.65517C53.6034 4.58621 57.2241 7 60.3621 10.1379C63.5 13.2759 65.9138 16.8966 67.8448 21.2414C69.7759 25.5862 70.5 29.931 70.5 35C70.5 40.069 69.5345 44.4138 67.8448 48.7586C65.9138 53.1034 63.5 56.7241 60.3621 59.8621C57.2241 63 53.6034 65.4138 49.2586 67.3448C44.9138 69.0345 40.3276 70 35.5 70ZM35.5 63C43.2241 63 49.9828 60.3448 55.2931 54.7931C60.6035 49.2414 63.5 42.7241 63.5 35C63.5 27.2759 60.8448 20.5172 55.2931 15.2069C49.7414 9.89655 43.2241 7 35.5 7C27.7759 7 21.0172 9.65517 15.7069 15.2069C10.3966 20.7586 7.5 27.2759 7.5 35C7.5 42.7241 10.1552 49.4828 15.7069 54.7931C21.2586 60.1035 27.7759 63 35.5 63Z" fill="#00A38A"/>
<path d="M23.5 37L32.5 46L40 35.5L47.5 25" stroke="#00A38A" stroke-width="5.1875" stroke-linecap="round" stroke-linejoin="round"/>
</svg>
