<svg width="71" height="70" viewBox="0 0 71 70" fill="none" xmlns="http://www.w3.org/2000/svg">
<path d="M35.5 17.3793C34.5345 17.3793 33.569 17.6207 33.0862 18.3448C32.3621 19.069 32.1207 19.7931 32.1207 20.7586C32.1207 21.7241 32.3621 22.6897 33.0862 23.1724C33.8103 23.8966 34.5345 24.1379 35.5 24.1379C36.4655 24.1379 37.431 23.8966 37.9138 23.1724C38.6379 22.4483 38.8793 21.7241 38.8793 20.7586C38.8793 19.7931 38.6379 18.8276 37.9138 18.3448C37.431 17.8621 36.4655 17.3793 35.5 17.3793ZM38.8793 31.6207L31.8793 31.6207L31.8793 52.6207L38.8793 52.6207L38.8793 31.6207ZM35.5 3.0598e-06C40.3276 2.63776e-06 44.9138 0.965525 49.2586 2.65518C53.6034 4.58621 57.2241 7 60.3621 10.1379C63.5 13.2759 65.9138 16.8966 67.8448 21.2414C69.5345 25.5862 70.5 30.1724 70.5 35C70.5 39.8276 69.5345 44.4138 67.8448 48.7586C66.1552 53.1034 63.5 56.7241 60.3621 59.8621C57.2241 63 53.6034 65.4138 49.2586 67.3448C44.9138 69.2759 40.3276 70 35.5 70C30.6724 70 26.0862 69.0345 21.7414 67.3448C17.3966 65.4138 13.7759 63 10.6379 59.8621C7.5 56.7241 5.08621 53.1035 3.15517 48.7586C1.22413 44.4138 0.499997 40.069 0.499997 35C0.499996 29.931 1.46552 25.5862 3.15517 21.2414C5.08621 16.8966 7.5 13.2759 10.6379 10.1379C13.7759 7 17.3965 4.58622 21.7414 2.65518C26.0862 0.965527 30.6724 3.48184e-06 35.5 3.0598e-06ZM35.5 7C27.7759 7 21.0172 9.65517 15.7069 15.2069C10.3965 20.7586 7.5 27.2759 7.5 35C7.5 42.7241 10.1552 49.4828 15.7069 54.7931C21.2586 60.1035 27.7759 63 35.5 63C43.2241 63 49.9828 60.3448 55.2931 54.7931C60.6034 49.2414 63.5 42.7241 63.5 35C63.5 27.2759 60.8448 20.5172 55.2931 15.2069C49.7414 9.89655 43.2241 7 35.5 7Z" fill="white"/>
</svg>
