<svg width="25" height="24" viewBox="0 0 25 24" fill="none" xmlns="http://www.w3.org/2000/svg">
<path d="M17.2172 13.9862C17.7138 13.9862 18.2103 13.8207 18.6241 13.4069C19.0379 12.9931 19.2034 12.4966 19.2034 12C19.2034 11.5035 19.0379 11.0069 18.6241 10.5931C18.2103 10.1794 17.7138 10.0138 17.2172 10.0138C16.7207 10.0138 16.2241 10.1794 15.8103 10.5931C15.3966 11.0069 15.231 11.4207 15.231 12C15.231 12.4966 15.3966 12.9931 15.8103 13.4069C16.2241 13.8207 16.7207 13.9862 17.2172 13.9862ZM2.40345 19.7794V21.4345V2.56556V19.7794ZM2.40345 23.338C1.9069 23.338 1.4931 23.1725 1.07931 22.7587C0.665517 22.3449 0.5 21.9311 0.5 21.4345V2.56556C0.5 2.06901 0.665517 1.65521 1.07931 1.24142C1.4931 0.827627 1.9069 0.662109 2.40345 0.662109H21.2724C21.769 0.662109 22.1828 0.827627 22.5966 1.24142C23.0103 1.65521 23.1759 2.06901 23.1759 2.56556V6.78625H21.2724V2.56556H2.40345V21.4345H21.2724V17.2138H23.1759V21.4345C23.1759 21.9311 23.0103 22.3449 22.5966 22.7587C22.1828 23.1725 21.769 23.338 21.2724 23.338H2.40345ZM13.6586 17.8759C12.9138 17.8759 12.4172 17.6276 11.9207 17.2138C11.5069 16.8 11.2586 16.2207 11.2586 15.5587V8.44142C11.2586 7.69659 11.5069 7.20004 11.9207 6.78625C12.3345 6.37245 12.9138 6.20694 13.6586 6.20694H22.1828C22.9276 6.20694 23.4241 6.37245 23.9207 6.78625C24.3345 7.20004 24.5828 7.77935 24.5828 8.44142V15.5587C24.5828 16.2207 24.3345 16.8 23.9207 17.2138C23.5069 17.6276 22.9276 17.8759 22.1828 17.8759H13.6586ZM22.5966 15.9725V8.02763H13.2448V15.9725H22.5966Z" fill="white"/>
</svg>
