<svg width="41" height="41" viewBox="0 0 41 41" fill="none" xmlns="http://www.w3.org/2000/svg">
<path d="M20.5 30.8207C21.0655 30.8207 21.631 30.6793 21.9138 30.2552C22.3379 29.831 22.4793 29.4069 22.4793 28.8414C22.4793 28.2759 22.3379 27.7103 21.9138 27.4276C21.4897 27.0034 21.0655 26.8621 20.5 26.8621C19.9345 26.8621 19.369 27.0034 19.0862 27.4276C18.6621 27.8517 18.5207 28.2759 18.5207 28.8414C18.5207 29.4069 18.6621 29.9724 19.0862 30.2552C19.369 30.5379 19.9345 30.8207 20.5 30.8207ZM18.5207 22.4793H22.6207V10.1793H18.5207V22.4793ZM20.5 41C17.6724 41 14.9862 40.4345 12.4414 39.4448C9.89655 38.3138 7.77586 36.9 5.93793 35.0621C4.1 33.2241 2.68621 31.1034 1.55517 28.5586C0.565517 26.0138 0 23.3276 0 20.5C0 17.6724 0.565517 14.9862 1.55517 12.4414C2.54483 9.89655 4.1 7.77586 5.93793 5.93793C7.77586 4.1 9.89655 2.68621 12.4414 1.55517C14.9862 0.424138 17.6724 0 20.5 0C23.3276 0 26.0138 0.565517 28.5586 1.55517C31.1034 2.68621 33.2241 4.1 35.0621 5.93793C36.9 7.77586 38.3138 9.89655 39.4448 12.4414C40.5759 14.9862 41 17.531 41 20.5C41 23.469 40.4345 26.0138 39.4448 28.5586C38.3138 31.1034 36.9 33.2241 35.0621 35.0621C33.2241 36.9 31.1034 38.3138 28.5586 39.4448C26.0138 40.4345 23.3276 41 20.5 41ZM20.5 36.9C25.0241 36.9 28.9828 35.3448 32.0931 32.0931C35.2034 28.8414 36.9 25.0241 36.9 20.5C36.9 15.9759 35.3448 12.0172 32.0931 8.9069C28.8414 5.79655 25.0241 4.1 20.5 4.1C15.9759 4.1 12.0172 5.65517 8.9069 8.9069C5.79655 12.1586 4.1 15.9759 4.1 20.5C4.1 25.0241 5.65517 28.9828 8.9069 32.0931C12.1586 35.2034 15.9759 36.9 20.5 36.9Z" fill="currentColor"/>
</svg>
